<?xml version="1.0"?>
<svg width="512" height="512" xmlns="http://www.w3.org/2000/svg" xmlns:svg="http://www.w3.org/2000/svg" version="1.1">
 <title/>
 <g class="layer">
  <title>Layer 1</title>
  <path d="m512,246l0,-192l-384,0c0,-17.67 -14.33,-32 -32,-32l-96,0l0,32l64,0l24.04,206.03c-14.65,11.73 -24.04,29.75 -24.04,49.97c0,35.35 28.65,64 64,64l384,0l0,-32l-374,2c-17.67,0 -38,-5.89 -42,-34c-4,-28.11 57.01,-9.22 0.01,-0.33l415.99,-63.67z" fill="#ff0000" id="svg_3"/>
  <g id="icomoon-ignore"/>
  <path d="m192,463c0,26.51 -21.49,48 -48,48s-48,-21.49 -48,-48c0,-26.51 21.49,-48 48,-48s48,21.49 48,48z" fill="#ff0000" id="svg_1" transform="matrix(1 0 0 1 0 0)"/>
  <path d="m512,464c0,26.51 -21.49,48 -48,48s-48,-21.49 -48,-48c0,-26.51 21.49,-48 48,-48s48,21.49 48,48z" fill="#ff0000" id="svg_2" transform="matrix(1 0 0 1 0 0)"/>
 </g>
</svg>